<?xml version="1.0" ?><!DOCTYPE svg  PUBLIC '-//W3C//DTD SVG 1.1//EN'  'http://www.w3.org/Graphics/SVG/1.1/DTD/svg11.dtd'><svg enable-background="new 0 0 128 128" id="Слой_1" version="1.1" viewBox="0 0 128 128" xml:space="preserve" xmlns="http://www.w3.org/2000/svg" xmlns:xlink="http://www.w3.org/1999/xlink"><g><circle cx="64" cy="64" fill="#EFEFEF" r="62"/><g><g><path d="M82.7,63.9c0-27-21.9-48.9-48.9-48.9c-3,0-5.9,0.3-8.7,0.8C11,27.2,2,44.5,2,64c0,19.3,8.9,36.6,22.7,48     c2.9,0.5,5.9,0.8,9,0.8C60.8,112.8,82.7,90.9,82.7,63.9z" fill="#72B6D3"/></g><g><path d="M83.7,63.9C83.7,36.4,61.3,14,33.7,14c-2.4,0-4.8,0.2-7.1,0.5c-1.1,0.8-2.2,1.7-3.2,2.6     c3.3-0.7,6.8-1.1,10.3-1.1c26.4,0,47.9,21.5,47.9,47.9s-21.5,47.9-47.9,47.9c-3.6,0-7.2-0.4-10.6-1.2c1,0.9,2.1,1.8,3.2,2.6     c2.4,0.4,4.9,0.5,7.4,0.5C61.3,113.8,83.7,91.4,83.7,63.9z" fill="#62355C"/></g><path d="M84.8,66.1c0-14.1-5.9-26.7-15.4-35.6c8.2,8.8,13.3,20.5,13.3,33.5    c0,27-21.9,48.9-48.9,48.9c-3.1,0-6.1-0.3-9-0.8c1,0.8,2,1.6,3.1,2.3c2.6,0.4,5.3,0.7,8.1,0.7C62.9,115,84.8,93.1,84.8,66.1z" fill="#593055" opacity="0.2"/><g><path d="M33.7,99.2c19.5,0,35.3-15.8,35.3-35.3c0-19.5-15.8-35.3-35.3-35.3c-11.2,0-21.3,5.3-27.7,13.5     C3.4,48.9,2,56.3,2,64c0,7.6,1.4,14.8,3.9,21.6C12.3,93.9,22.4,99.2,33.7,99.2z" fill="#FFFFFF"/></g><g><path d="M33.7,100.2c20,0,36.3-16.3,36.3-36.3S53.8,27.6,33.7,27.6c-10.5,0-19.9,4.5-26.5,11.6     c-0.9,2-1.7,4.1-2.4,6.3c6.1-9.5,16.8-15.9,28.9-15.9c18.9,0,34.3,15.4,34.3,34.3S52.7,98.2,33.7,98.2c-12.2,0-22.9-6.4-29-16     c0.7,2.2,1.4,4.3,2.3,6.3C13.7,95.7,23.2,100.2,33.7,100.2z" fill="#62355C"/></g><g><path d="M33.7,42.2c-12,0-21.7,9.8-21.7,21.7c0,12,9.8,21.7,21.7,21.7c12,0,21.7-9.8,21.7-21.7     C55.5,51.9,45.7,42.2,33.7,42.2z" fill="#F1ED7B"/></g><g><path d="M33.7,41.2C21.2,41.2,11,51.4,11,63.9s10.2,22.7,22.7,22.7s22.7-10.2,22.7-22.7S46.3,41.2,33.7,41.2z      M33.7,84.7C22.3,84.7,13,75.3,13,63.9s9.3-20.7,20.7-20.7s20.7,9.3,20.7,20.7S45.2,84.7,33.7,84.7z" fill="#62355C"/></g><g><path d="M33.7,55.8c-4.5,0-8.2,3.7-8.2,8.2c0,4.5,3.7,8.2,8.2,8.2c4.5,0,8.2-3.7,8.2-8.2     C41.9,59.4,38.2,55.8,33.7,55.8z" fill="#EC7BB0"/></g><g><path d="M33.7,54.8c-5,0-9.2,4.1-9.2,9.2s4.1,9.2,9.2,9.2s9.2-4.1,9.2-9.2S38.8,54.8,33.7,54.8z M33.7,71.1     c-3.9,0-7.2-3.2-7.2-7.2s3.2-7.2,7.2-7.2s7.2,3.2,7.2,7.2S37.7,71.1,33.7,71.1z" fill="#62355C"/></g><path d="M81.2,98.2l-4.1,0.6l2.8-1.6l-7.9-6l-5.4,1.3L34.1,63.2c-0.3-0.3-0.7-0.5-1-0.2    c-0.2,0.2-0.2,0.6,0,1l31.6,30.4l-0.9,5.5l2.9,3.3l0.9-2.8l-0.1,3.7l8,9.2l2-6.7l-0.5-0.5l2.1,2c0.2,0.2,0.9-0.1,1.5-0.8    c0.6-0.7,0.9-1.4,0.7-1.6l-1.5-1.4l6.5-2.4L81.2,98.2z" fill="#593055" opacity="0.2"/><g><path d="M33.3,62.9c-0.4,0.2-0.5,0.7-0.3,1s0.7,0.5,1,0.3l51.3-29.5l-1.5-2.6L33.3,62.9z" fill="#FFFFFF"/></g><g><path d="M84.7,31.6c-0.1-0.2-0.4-0.4-0.6-0.5c-0.3-0.1-0.5,0-0.8,0.1L32.8,62c-0.4,0.2-0.7,0.6-0.8,1.1     s0,0.9,0.2,1.3c0.3,0.5,0.9,0.9,1.5,0.9c0.3,0,0.6-0.1,0.9-0.2l51.3-29.5c0.2-0.1,0.4-0.4,0.5-0.6c0.1-0.3,0-0.5-0.1-0.8     L84.7,31.6z M50.5,53.6l33-20.1l0.5,0.8L50.5,53.6z" fill="#62355C"/></g><g><polygon fill="#EC7BB0" points="77,30.1 76.5,33.9 75.8,31 68.3,36.5 68,41.9 82.2,33.4 81.7,26.7    "/></g><g><path d="M82.1,25.8c-0.3-0.2-0.7-0.1-1,0.1l-4.7,3.4c-0.2,0.2-0.4,0.4-0.4,0.7l0,0.1c-0.3-0.1-0.6,0-0.8,0.2     l-7.5,5.5c-0.2,0.2-0.4,0.5-0.4,0.7L67,41.7c0,0.4,0.2,0.7,0.5,0.9c0.2,0.1,0.3,0.1,0.5,0.1c0.2,0,0.4,0,0.5-0.1L82.7,34     c0.3-0.2,0.5-0.6,0.5-0.9l-0.5-6.5C82.7,26.2,82.4,25.9,82.1,25.8z M69.1,39.9l0.2-2.8l5.9-4.3l0.3,1.4c0.1,0.5,0.5,0.8,1,0.8     c0.5,0,0.9-0.4,0.9-0.9l0.5-3.4l2.9-2.1l0.3,4L69.1,39.9z" fill="#62355C"/></g><g><polygon fill="#EC7BB0" points="69.4,43.9 74,46.1 77.7,44.4 75.5,42.9 78.8,43.9 89.1,39.2 83.6,35.7    "/></g><g><path d="M89.6,38.3l-5.4-3.5c-0.3-0.2-0.7-0.2-1,0L68.9,43c-0.3,0.2-0.5,0.5-0.5,0.9c0,0.4,0.2,0.7,0.6,0.9     l4.6,2.2c0.1,0.1,0.3,0.1,0.4,0.1c0.1,0,0.3,0,0.4-0.1l3.8-1.7c0.2-0.1,0.3-0.2,0.4-0.4c0.2,0,0.4,0,0.6-0.1l10.3-4.7     c0.3-0.2,0.6-0.5,0.6-0.8C90.1,38.9,89.9,38.5,89.6,38.3z M78.7,42.8l-2.9-0.9c-0.5-0.2-1,0.1-1.2,0.5c-0.2,0.4-0.1,1,0.3,1.3     l0.8,0.6L74,45l-2.5-1.2l12.1-7L87,39L78.7,42.8z" fill="#62355C"/></g><polygon fill="#593055" opacity="0.2" points="69.4,43.9 74,46.1 77.7,44.4 75.5,42.9 78.8,43.9 89.1,39.2 83.6,35.7   "/></g></g></svg>