<?xml version="1.0" ?><!DOCTYPE svg  PUBLIC '-//W3C//DTD SVG 1.1//EN'  'http://www.w3.org/Graphics/SVG/1.1/DTD/svg11.dtd'><svg enable-background="new 0 0 128 128" id="Слой_1" version="1.1" viewBox="0 0 128 128" xml:space="preserve" xmlns="http://www.w3.org/2000/svg" xmlns:xlink="http://www.w3.org/1999/xlink"><g><circle cx="64" cy="64" fill="#D6D6D6" r="62"/><g><g><path d="M126,64c0-20.5-10-38.7-25.4-50H62.8c-3.5,0-6.2,2.8-6.2,6.2v87.5c0,3.5,2.8,6.2,6.2,6.2h37.9     C116,102.7,126,84.5,126,64z" fill="#FFFFFF"/></g><g><path d="M62.8,113c-2.9,0-5.2-2.4-5.2-5.2V20.2c0-2.9,2.4-5.2,5.2-5.2H102c-0.9-0.7-1.8-1.4-2.7-2H62.8     c-4,0-7.2,3.3-7.2,7.2v87.5c0,4,3.3,7.2,7.2,7.2h36.5c0.9-0.6,1.8-1.3,2.7-2H62.8z" fill="#62355C"/></g><g><path d="M83.8,26.1H68.9c-1.1,0-2,0.9-2,2V43c0,1.1,0.9,2,2,2h14.9c1.1,0,2-0.9,2-2V28.1     C85.9,27,85,26.1,83.8,26.1z" fill="#EC7BB0"/><path d="M83.8,25.4H68.9c-1.5,0-2.7,1.2-2.7,2.7V43c0,1.5,1.2,2.7,2.7,2.7h14.9c1.5,0,2.7-1.2,2.7-2.7V28.1     C86.5,26.6,85.3,25.4,83.8,25.4z M85.2,43c0,0.7-0.6,1.4-1.4,1.4H68.9c-0.7,0-1.4-0.6-1.4-1.4V28.1c0-0.7,0.6-1.4,1.4-1.4h14.9     c0.7,0,1.4,0.6,1.4,1.4V43z" fill="#62355C"/></g><g><path d="M83.8,54.5H68.9c-1.1,0-2,0.9-2,2v14.9c0,1.1,0.9,2,2,2h14.9c1.1,0,2-0.9,2-2V56.5     C85.9,55.4,85,54.5,83.8,54.5z" fill="#EC7BB0"/><path d="M83.8,53.8H68.9c-1.5,0-2.7,1.2-2.7,2.7v14.9c0,1.5,1.2,2.7,2.7,2.7h14.9c1.5,0,2.7-1.2,2.7-2.7V56.5     C86.5,55.1,85.3,53.8,83.8,53.8z M85.2,71.5c0,0.7-0.6,1.4-1.4,1.4H68.9c-0.7,0-1.4-0.6-1.4-1.4V56.5c0-0.7,0.6-1.4,1.4-1.4h14.9     c0.7,0,1.4,0.6,1.4,1.4V71.5z" fill="#62355C"/></g><g><path d="M83.8,81.9H68.9c-1.7,0-3,1.4-3,3v14.9c0,1.7,1.4,3,3,3h14.9c1.7,0,3-1.4,3-3V85     C86.9,83.3,85.5,81.9,83.8,81.9z M84.9,99.9c0,0.6-0.5,1-1,1H68.9c-0.6,0-1-0.5-1-1V85c0-0.6,0.5-1,1-1h14.9c0.6,0,1,0.5,1,1     V99.9z" fill="#62355C"/></g><g><path d="M83.8,25.1H68.9c-1.7,0-3,1.4-3,3V43c0,1.7,1.4,3,3,3h14.9c1.7,0,3-1.4,3-3V28.1     C86.9,26.4,85.5,25.1,83.8,25.1z M84.9,43c0,0.6-0.5,1-1,1H68.9c-0.6,0-1-0.5-1-1V28.1c0-0.6,0.5-1,1-1h14.9c0.6,0,1,0.5,1,1V43z     " fill="#62355C"/></g><g><path d="M83.8,53.5H68.9c-1.7,0-3,1.4-3,3v14.9c0,1.7,1.4,3,3,3h14.9c1.7,0,3-1.4,3-3V56.5     C86.9,54.9,85.5,53.5,83.8,53.5z M84.9,71.5c0,0.6-0.5,1-1,1H68.9c-0.6,0-1-0.5-1-1V56.5c0-0.6,0.5-1,1-1h14.9c0.6,0,1,0.5,1,1     V71.5z" fill="#62355C"/></g><g><path d="M83.8,81.9H68.9c-1.7,0-3,1.4-3,3v14.9c0,1.7,1.4,3,3,3h14.9c1.7,0,3-1.4,3-3V85     C86.9,83.3,85.5,81.9,83.8,81.9z M84.9,99.9c0,0.6-0.5,1-1,1H68.9c-0.6,0-1-0.5-1-1V85c0-0.6,0.5-1,1-1h14.9c0.6,0,1,0.5,1,1     V99.9z" fill="#62355C"/></g><g><path d="M96.4,35.6c0,0.7,0.6,1.3,1.3,1.3h22c-0.4-0.9-0.9-1.8-1.4-2.7H97.8C97,34.2,96.4,34.8,96.4,35.6z" fill="#62355C"/></g><g><path d="M120.7,62.7H97.8c-0.7,0-1.3,0.6-1.3,1.3s0.6,1.3,1.3,1.3h22.9c0.7,0,1.3-0.6,1.3-1.3     S121.4,62.7,120.7,62.7z" fill="#62355C"/></g><g><path d="M97.5,91.1c-0.7,0-1.3,0.6-1.3,1.3s0.6,1.3,1.3,1.3h20.9c0.5-0.9,0.9-1.8,1.4-2.7H97.5z" fill="#62355C"/></g></g></g></svg>